<svg xmlns="http://www.w3.org/2000/svg" enable-background="new 0 0 600 500" viewBox="0 0 600 500">
    <path fill="#d2e4ff"
        d="M555.8 440c.6-11.4-.2-22.8-2.4-33.9-4-20-8.5-23.8-34.5-45.3-6.8-5.6 28.1-131.4 37.1-213.7 9.9-91.4-185.3-86.8-209-87-46.2-.4-118.6-.3-161.3-.2-32.2.1-63.5 11.5-87.6 32.8C.2 179.3 68.2 328 67.4 337.9 65 365.8 26.6 393.3 52.7 440h503.1z"
        opacity=".3" class="colord2e4ff svgShape"></path>
    <path fill="#ffffff"
        d="M462.3 103.8V340c0 8.5-7.2 15.6-16.5 15.6H215.7c-9.1 0-16.4-7-16.4-15.6V103.8h263z"
        class="colorfff svgShape"></path>
    <path fill="#060405"
        d="M462.3 104.8v-9.7c0-3.3-1.1-6.3-2.8-8.8-.3-.4-.6-.8-1-1.2-1.2-1.4-2.6-2.5-4.1-3.4-.9-.5-1.9-1-2.9-1.3-.5-.2-1-.3-1.5-.5-1.3-.3-2.7-.5-4.1-.5H215.7c-1.4 0-2.8.2-4.1.5-.5.1-1 .3-1.5.5-1 .3-2 .8-2.9 1.3-4.7 2.7-7.9 7.7-7.9 13.4v9.7h263z"
        class="color060405 svgShape"></path>
    <path fill="#ffffff"
        d="M218.2 94.5c0 2-1.7 3.5-3.7 3.5s-3.7-1.6-3.7-3.5 1.7-3.5 3.7-3.5c2.1 0 3.7 1.5 3.7 3.5zM239 94.5c0 2-1.7 3.5-3.7 3.5s-3.7-1.6-3.7-3.5 1.7-3.5 3.7-3.5 3.7 1.5 3.7 3.5zM228.6 94.5c0 2-1.7 3.5-3.7 3.5s-3.7-1.6-3.7-3.5 1.7-3.5 3.7-3.5 3.7 1.5 3.7 3.5z"
        class="colorfff svgShape"></path>
    <path d="M462.3 265.9V332h-127c-2.6 0-4.5-2-4.5-4.5v-57.1c0-2.6 2-4.5 4.5-4.5h127z"
        opacity=".05" fill="#000000" class="color000 svgShape"></path>
    <path fill="#ff7545"
        d="M487.1 266.6v57.1c0 2.5-2.1 4.5-4.5 4.5H339c-2.5 0-4.5-2-4.5-4.5v-57.1c0-2.5 2-4.5 4.5-4.5h143.6c2.4 0 4.5 2 4.5 4.5z"
        class="colorff7545 svgShape"></path>
    <path fill="#ffffff"
        d="M353.5 288.2h2v30.2h-2zM371.3 287.2h2v31.1h-2zM389.1 299h2v19.3h-2zM406.9 291.9h2v26.4h-2zM424.8 276.4h2v41.9h-2zM442.6 294.2h2v24.1h-2zM460.4 272.9h2v45.4h-2z"
        class="colorfff svgShape"></path>
    <path fill="#ffffff"
        d="m470.6 317.5-125.3.9s6-22.3 22.3-24.6c16.3-2.2 13.2 14.9 28.3 13.2 16.6-1.8 15.3-23.1 25.1-25.4 7.7-1.9 14.5 18.5 21.1 18.7 6.6.2 8.3-8.3 12.2-17.5 5.3-12.8 16.4-12.8 16.4-12.8v47.5z"
        opacity=".6" class="colorfff svgShape"></path>
    <path fill="#d2e4ff"
        d="M292.4 243.8h-73c-2.7 0-4.8-2.2-4.8-4.8V126.1c0-2.7 2.2-4.8 4.8-4.8h73c2.7 0 4.8 2.2 4.8 4.8V239c0 2.6-2.2 4.8-4.8 4.8z"
        class="colord2e4ff svgShape"></path>
    <circle cx="230.3" cy="194.2" r="10.4" fill="#ffffff" class="colorfff svgShape"></circle>
    <path fill="#ffffff"
        d="M244.9 187.8h20.8v3.6h-20.8zM244.9 194.3h33.8v1.9h-33.8zM281.3 194.3h8.1v1.9h-8.1zM258.5 198.6h10.7v1.9h-10.7zM244.9 198.6h7.9v1.9h-7.9z"
        class="colorfff svgShape"></path>
    <circle cx="230.3" cy="219.4" r="10.4" fill="#ffffff" class="colorfff svgShape"></circle>
    <path fill="#ffffff"
        d="M244.9 213h20.8v3.6h-20.8zM244.9 219.5h33.8v1.9h-33.8zM281.3 219.5h8.1v1.9h-8.1zM258.5 223.8h10.7v1.9h-10.7zM244.9 223.8h7.9v1.9h-7.9z"
        class="colorfff svgShape"></path>
    <circle cx="253.9" cy="154.3" r="22.3" fill="#ffffff" class="colorfff svgShape"></circle>
    <circle cx="253.9" cy="147.8" r="5" fill="#060405" class="color060405 svgShape"></circle>
    <path fill="#060405"
        d="M264.2 165.7v-.4c0-5.7-4.6-10.2-10.2-10.2-5.7 0-10.2 4.6-10.2 10.2v.4h20.4zM74.5 287.3c.4 31.3 1.6 126 2.8 138.3h14.8l16.7-108.8 18.1 108.8 14.8.7 3.1-139H74.5z"
        class="color060405 svgShape"></path>
    <path fill="#6193f6"
        d="M141.7 428v-2.5h-14.8c-.2 4.8-.6 13.8-.7 13.8h24c.9-7.9-8.5-11.3-8.5-11.3z"
        class="color6193f6 svgShape"></path>
    <path fill="#060405" d="M149.9 435.9c.3 1 .5 2.2.3 3.4h-24s.1-1.4.2-3.4h23.5z"
        class="color060405 svgShape"></path>
    <path fill="#6193f6"
        d="M92.1 428v-2.5H77.4c-.2 4.8-.6 13.8-.7 13.8h24c.8-7.9-8.6-11.3-8.6-11.3z"
        class="color6193f6 svgShape"></path>
    <path fill="#060405" d="M100.4 435.9c.3 1 .5 2.2.3 3.4h-24s.1-1.4.2-3.4h23.5z"
        class="color060405 svgShape"></path>
    <path fill="#ffffff"
        d="m137.5 232.5 30.4 11 43.8-24.2s5.8 1.7 9-1.8-2-8.4-2-8.4 9.5-7.3 8.9-9.7c-.7-2.4-13.4 7.1-13.4 7.1s.7-3.3-.5-4.5-3.9 5.6-3.9 5.6l-42.9 9.9-13.3-11-16.1 26z"
        class="colorfff svgShape"></path>
    <path fill="#060405"
        d="m167.9 244.1-31.2-11.3 16.7-27L167 217l42.4-9.8c.8-2 3.1-7.1 4.6-5.5.9.9.9 2.6.8 3.7 2.7-1.9 12.4-9 13.2-6.2.7 2.4-6.3 8.1-8.6 9.9 1.9 2 4.2 5.9 1.6 8.7-3.1 3.3-8.2 2.3-9.3 2l-43.8 24.3zm-29.7-11.9 29.6 10.8 43.7-24.2c2.9.8 6.7.7 8.7-1.6 2.2-2.4-.1-5.9-2.4-8.1l.5-.4c3.9-3 9.1-7.8 8.7-9.2-1.5-1-13.5 8.1-13.6 8.2 0-.1 1.1-4.2-.1-5.3-.5.1-1.9 2.6-3.1 5.4l-.1.2-43.4 10-13-10.8-15.5 25z"
        class="color060405 svgShape"></path>
    <path fill="#f2cb2a"
        d="M72.9 230c.8.1 1.7.2 2.6.2l-4.1 58.6c0 6.9 74.2 6.9 74.2 0l-2.8-59v-.1s15-10.4 16.6-22.4c0 0 .9 1.4 0 0-4-6.3-16.6-23.6-36.7-29.5-3.9-1.1-8-1.9-12.5-2-9.3-.3-18.3 2.3-26.4 6.7-23.2 12.8-32.2 34.3-32.2 34.3s-.3-.8 2.1 1.5c4.2 4.2 8.7 9.9 18 11.5.3.1.8.1 1.2.2z"
        class="colorf2cb2a svgShape"></path>
    <path
        d="M142.7 230.3c-.2 0-.4-.1-.5-.4l-5.6-21.8c-.1-.3.1-.5.4-.6.3-.1.5.1.6.4l5.6 21.8c.1.3-.1.5-.4.6h-.1z"
        fill="#000000" class="color000 svgShape"></path>
    <path fill="#060405"
        d="M97.3 263.3c0 1.7 1.4 3 3 3h70.3c1.7 0 3-1.4 3-3 0-1.7-1.4-3-3-3h-70.3c-1.7 0-3 1.3-3 3z"
        class="color060405 svgShape"></path>
    <path fill="#ffffff"
        d="M130.9 260.3h43.4c2.3 0 4.3-1.5 4.9-3.8l8.9-33.8c.8-3.2-1.6-6.3-4.9-6.3h-43.4c-2.3 0-4.3 1.6-4.9 3.8L126 254c-.8 3.1 1.6 6.3 4.9 6.3z"
        class="colorfff svgShape"></path>
    <path fill="#060405"
        d="M174.3 260.8h-43.4c-3.6 0-6.3-3.4-5.3-6.9l8.9-33.8c.6-2.4 2.8-4.1 5.3-4.1h43.4c3.6 0 6.3 3.4 5.3 6.9l-8.9 33.8c-.6 2.4-2.8 4.1-5.3 4.1zm-34.5-43.9c-2 0-3.8 1.4-4.4 3.4l-8.9 33.8c-.7 2.9 1.4 5.7 4.4 5.7h43.4c2 0 3.8-1.4 4.4-3.4l8.9-33.8c.8-2.9-1.4-5.7-4.4-5.7h-43.4z"
        class="color060405 svgShape"></path>
    <path fill="#d2e4ff"
        d="M170.3 255.6c-.3 1.5-.4 3.2-.1 4.7h4.1c2.3 0 4.3-1.5 4.9-3.8l8.9-33.8c.8-3.2-1.6-6.3-4.9-6.3h-14.4c3.4 1.9 6.5 4.3 8.1 7.7 2.4 5 1.3 10.9-.7 16-2 5.2-4.8 10.1-5.9 15.5z"
        class="colord2e4ff svgShape"></path>
    <path fill="#060405"
        d="M170.6 266.8h-70.3c-1.9 0-3.5-1.6-3.5-3.5s1.6-3.5 3.5-3.5h70.3c1.9 0 3.5 1.6 3.5 3.5s-1.6 3.5-3.5 3.5zm-70.3-6c-1.4 0-2.5 1.1-2.5 2.5s1.1 2.5 2.5 2.5h70.3c1.4 0 2.5-1.1 2.5-2.5s-1.1-2.5-2.5-2.5h-70.3z"
        class="color060405 svgShape"></path>
    <path fill="#060405"
        d="M174.3 260.8h-43.4c-3.6 0-6.3-3.4-5.3-6.9l8.9-33.8c.6-2.4 2.8-4.1 5.3-4.1h43.4c3.6 0 6.3 3.4 5.3 6.9l-8.9 33.8c-.6 2.4-2.8 4.1-5.3 4.1zm-34.5-43.9c-2.1 0-3.8 1.4-4.4 3.4l-8.9 33.8c-.8 2.9 1.4 5.7 4.4 5.7h43.4c2.1 0 3.9-1.4 4.4-3.4l8.9-33.8c.8-2.9-1.4-5.7-4.4-5.7h-43.4z"
        class="color060405 svgShape"></path>
    <path fill="#d2e4ff"
        d="M155.1 238.8c-.2 1.9 1.2 3.5 3.2 3.5 1.9 0 3.6-1.6 3.8-3.5.2-1.9-1.2-3.5-3.2-3.5s-3.7 1.6-3.8 3.5z"
        class="colord2e4ff svgShape"></path>
    <path fill="#ffffff"
        d="M46.6 255.4c5 8.6 59.6 11.8 59.6 11.8s15.6 6.4 20.8-1.3c5.2-7.7-8.6-7.4-8.6-7.4s3-1.1 1.1-3.9-12.2 1.9-12.2 1.9l-35.6-15.1 3.6-17L50 220s-8.2 27-3.4 35.4z"
        class="colorfff svgShape"></path>
    <path fill="#060405"
        d="M118 270.1c-5.5 0-11.2-2.2-12-2.5-3.2-.2-54.9-3.4-59.9-12-4.9-8.5 3-34.7 3.3-35.8l.1-.4 26.2 4.5-3.5 17.1 35.1 14.8c1.8-.8 10.7-4.5 12.6-1.6.7 1 .9 1.9.6 2.7-.1.4-.3.7-.6 1 2.4.1 7 .7 8.3 3.2.7 1.4.4 3-.9 4.9-2 3.2-5.6 4.1-9.3 4.1zm-71-15c4.8 8.3 58.6 11.5 59.2 11.5h.2c.2.1 15.2 6.1 20.2-1.1 1.1-1.6 1.4-2.9.8-3.9-1.3-2.4-6.9-2.8-9-2.7l-2.8.1 2.6-1s1-.4 1.3-1.3c.2-.5 0-1.2-.5-1.9-1.2-1.8-7.7.3-11.6 2.1l-.2.1L71 241.6l3.6-16.9-24.3-4.2c-1 3.5-7.6 27.1-3.3 34.6z"
        class="color060405 svgShape"></path>
    <path fill="#f2cb2a"
        d="M83.7 182.5c.5 13.5-2.1 31.1-7.4 49.8-.9 0-2.9-.4-3.7-.5-.4-.1-.9-.1-1.3-.2-14.3-1.8-24.7-9.5-24.7-9.5s5-25.9 37.1-39.6z"
        class="colorf2cb2a svgShape"></path>
    <path
        d="M75.6 232.5h-.1c-.3-.1-.4-.3-.4-.6l3.7-14.6c.1-.3.3-.4.6-.4.3.1.4.3.4.6l-3.7 14.6c-.1.3-.3.4-.5.4z"
        fill="#000000" class="color000 svgShape"></path>
    <path fill="#ffffff"
        d="M99.5 176.6s5.9 9.8 21.4 14l.8-13s-1.5-6.5-2-12.1c-.5-5.5-12.9-17.2-13.7-18s-.4 8.4-2.4 16.8c-1.2 4.5-1.9 9-4.1 12.3z"
        class="colorfff svgShape"></path>
    <path fill="#060405"
        d="M120.8 191.1c-15.6-4.2-21.5-13.8-21.7-14.2-.1-.2-.1-.4 0-.5 1.8-2.6 2.5-6 3.3-9.6.2-.9.4-1.7.6-2.6 2-8.3 2.4-16.6 2.4-16.7 0-.2.1-.4.3-.4.2-.1.3 0 .5.1h.1c.1.1 13.4 12.4 13.9 18.3.5 6.3 2 11.9 2 12.2-.9 13.5-.6 13.1-1 13.4 0 0-.2.1-.4 0zm-20.7-14.5c1 1.5 7 9.6 20.4 13.4l.8-12.3c-.2-.7-1.5-6.8-2-12.1-.4-4.6-10-14.2-12.9-17-.2 2.5-.8 9.2-2.4 15.9-.2.9-.4 1.7-.6 2.6-.8 3.5-1.6 6.8-3.3 9.5z"
        class="color060405 svgShape"></path>
    <path fill="#ffffff"
        d="M105.4 150s-.4 20.8 16.1 22.6c19 2 11.7-36.4 11.7-36.4l-12.4-9.7-14.6 3.2-6.6 9.9 5.8 10.4z"
        class="colorfff svgShape"></path>
    <path fill="#060405"
        d="M122.9 173.2c-.5 0-1 0-1.5-.1-16.1-1.7-16.6-21.1-16.6-23L99 139.8c-.1-.2-.1-.4 0-.5l6.6-9.9c.1-.1.2-.2.3-.2l14.6-3.2c.1 0 .3 0 .4.1l12.4 9.7c.1.1.2.2.2.3.2 1 4.7 25.2-3.4 34-1.8 2.1-4.2 3.1-7.2 3.1zm-22.8-33.6 5.7 10.1c0 .1.1.2.1.3 0 .2-.2 20.4 15.7 22.1 3.3.3 6-.6 8-2.7 7.4-8 3.6-30.6 3.2-32.9l-12.1-9.4-14.2 3.1-6.4 9.4z"
        class="color060405 svgShape"></path>
    <path fill="#060405"
        d="M92.9 144.1c-4 4.1 2.3 19.1 10.7 20.2 2-8.4 2.8-16.8 2.8-16.8s2.5-4.8 2.6-4.8c.1 0 3.7-2.1 3-5.1-.7-3 .8-2.4 3.2-2.1 3.8.5 22.4 8.9 25.7 1.2 7.3-16.7-18.3-18.4-28.3-16.4s-12.4 4.7-17.6 9.9c-1.8 2 1.7 10-2.1 13.9z"
        class="color060405 svgShape"></path>
    <path fill="#060405"
        d="M129.9 148.8c0 1-.5 1.8-1.1 1.8-.6 0-1.2-.8-1.2-1.8s.5-1.8 1.2-1.8c.6 0 1.1.8 1.1 1.8zM119.9 149.5c0 1-.5 1.8-1.1 1.8-.6 0-1.2-.8-1.2-1.8s.5-1.8 1.2-1.8c.5 0 1.1.8 1.1 1.8z"
        class="color060405 svgShape"></path>
    <path
        d="M123 158.6c-.2-.2-.2-.5 0-.7l2.1-2c.3-.3.3-.4.3-.4 0-.1-.2-.2-.4-.2-1.7-.7-1.3-2-1.9-6.4 0-.3.2-.5.4-.6.3 0 .5.2.6.4.5 4.1.4 5.1 1 5.5.3.2 1 .3 1.2 1 .2.7-.4 1.3-.6 1.5l-2.1 2c-.1.1-.4.1-.6-.1zM118.8 164.4c-.2-.2-.2-.5 0-.7.2-.2.5-.2.7 0 1 1 2.6 1 3.6.2.2-.2.5-.2.7.1.2.2.2.5-.1.7-1.4 1.1-3.6 1.1-4.9-.3zM108.7 197.1l-6.9-10.7c-.2-.2-.1-.5.1-.7.2-.2.5-.1.7.1l6.9 10.7c1.2 1.8 1.8 1.9 3.5.8 1.8-1.1 7.4-7.1 7.5-7.1.2-.2.5-.2.7 0 .2.2.2.5 0 .7-.2.2-5.8 6.1-7.7 7.3-2.1 1.4-3.3 1.2-4.8-1.1z"
        fill="#000000" class="color000 svgShape"></path>
    <path
        d="M120.7 191.1c-.2-.1-.3-.4-.2-.7.1-.2.4-.3.7-.2 1.7 1 4.9 2.6 6.1 2.3 1.4-.3 1.9-.7 1-2.5l-3-6.1c-.1-.2 0-.5.2-.7.2-.1.5 0 .7.2l3 6.1c1.1 2.2.6 3.5-1.7 3.9-1.7.5-5.3-1.5-6.8-2.3z"
        fill="#000000" class="color000 svgShape"></path>
    <path fill="#6193f6"
        d="M317.3 326.7h-104c-2.1 0-3.7-1.7-3.7-3.7v-55.7c0-2.1 1.7-3.7 3.7-3.7h104c2.1 0 3.7 1.7 3.7 3.7V323c0 2.1-1.7 3.7-3.7 3.7z"
        class="color6193f6 svgShape"></path>
    <path fill="#060405"
        d="M237.7 315.8c-1.6-2.6-2.2-5.7-3.1-8.4-2.9-8-9.1-7.7-12.7-2.9-1.9 2.6-2.7 5.9-3.4 8.9l-1.5-.3c.7-3.1 1.6-6.7 3.7-9.5 4.3-5.7 12-6 15.4 3.3 1 2.8 1.5 5.7 3 8.1 1.4 2.2 4 4 6.5 3.2 2.3-.8 3.5-3.4 4.4-5.8 8.4-21.5 8.5-22.4 10.2-24.5 3.7-4.8 9.3-3.8 12.1 1.3 2.4 4.3 2.1 10.6 5.9 13.5 3.3 2.5 8.2 1.2 11-1.5 6.3-6 5.4-16.6 10.6-24 2.1-3 6-5.5 9.5-3.9 3.2 1.4 4.2 5.2 4.8 8.8l-1.5.2c-.5-3.2-1.4-6.5-4-7.6-2.6-1.2-5.9.9-7.7 3.4-5.1 7.2-4 17.7-10.8 24.2-3.3 3.2-9.1 4.7-13 1.6-4.4-3.5-3.9-9.6-6.3-14-2.3-4.1-6.5-5.1-9.6-1.1-1.5 1.9-1.5 2.3-9.9 24.1-1.1 2.7-2.4 5.7-5.3 6.7-3.3 1.1-6.6-1-8.3-3.8z"
        class="color060405 svgShape"></path>
    <path fill="#ffffff"
        d="M220.6 312.8c.1 1.4-1 2.7-2.4 2.8-1.4.1-2.7-1-2.8-2.4-.1-1.4 1-2.7 2.4-2.8 1.4-.1 2.7.9 2.8 2.4zM315.8 281.2c.1 1.4-1 2.7-2.4 2.8-1.4.1-2.7-1-2.8-2.4-.1-1.4 1-2.7 2.4-2.8 1.4-.2 2.7.9 2.8 2.4zM217.6 271.1h19.7v3.4h-19.7zM217.6 276.2h19.7v3.4h-19.7zM217.6 281.4h8.1v3.4h-8.1zM229.6 281.4h4.1v3.4h-4.1z"
        class="colorfff svgShape"></path>
    <path fill="#d2e4ff"
        d="M389.6 189.6H314c-2 0-3.7-1.6-3.7-3.7v-59.5c0-2 1.6-3.7 3.7-3.7h75.6c2 0 3.7 1.6 3.7 3.7V186c-.1 2-1.7 3.6-3.7 3.6z"
        class="colord2e4ff svgShape"></path>
    <path fill="#6193f6"
        d="M474.9 189.6h-68.2c-2 0-3.7-1.6-3.7-3.7v-59.5c0-2 1.6-3.7 3.7-3.7h68.2c2 0 3.7 1.6 3.7 3.7V186c0 2-1.7 3.6-3.7 3.6z"
        class="color6193f6 svgShape"></path>
    <path fill="#060405"
        d="M379.8 180.8c2.9-4.9 4.6-10.5 4.6-16.6 0-18-14.6-32.6-32.6-32.6s-32.6 14.6-32.6 32.6c0 6.1 1.7 11.7 4.6 16.6h56z"
        class="color060405 svgShape"></path>
    <path fill="#ffffff"
        d="M325.1 177.6c-2-4.1-3.1-8.6-3.1-13.1 0-16.4 13.3-29.7 29.7-29.7s29.7 13.3 29.7 29.7c0 4.5-1.1 9-3.1 13.1h-53.2z"
        class="colorfff svgShape"></path>
    <path fill="#ff7545" d="m368 155 6.3-3.6c-2.3-4-5.5-7.3-9.5-9.6l-3.6 6.3c2.8 1.7 5.2 4 6.8 6.9z"
        class="colorff7545 svgShape"></path>
    <path fill="#fe6021" d="M374.3 151.4 368 155c1.6 2.8 2.5 6 2.4 9.4h7.2c.1-4.7-1.1-9.1-3.3-13z"
        class="colorfe6021 svgShape"></path>
    <path fill="#efc102" d="m361.2 148.1 3.6-6.3c-3.8-2.2-8.3-3.6-13-3.6v7.2c3.4.1 6.6 1.1 9.4 2.7z"
        class="colorefc102 svgShape"></path>
    <path fill="#f2cb2a"
        d="M351.8 145.5v-7.2c-4.8 0-9.2 1.3-13 3.6l3.6 6.3c2.7-1.7 5.9-2.7 9.4-2.7z"
        class="colorf2cb2a svgShape"></path>
    <path fill="#d2e4ff" d="m335.5 155-6.3-3.6c-2.2 3.9-3.4 8.3-3.4 13h7.2c.1-3.4.9-6.6 2.5-9.4z"
        class="colord2e4ff svgShape"></path>
    <path fill="#bdd6ff"
        d="m342.3 148.1-3.6-6.3c-3.9 2.3-7.2 5.6-9.5 9.6l6.3 3.6c1.6-2.9 4-5.2 6.8-6.9z"
        class="colorbdd6ff svgShape"></path>
    <path fill="#060405"
        d="M357.2 168.2c-1.7 2.9-5.5 3.9-8.5 2.2-3-1.7-4-5.5-2.2-8.5s12.6-9.3 12.6-9.3-.2 12.6-1.9 15.6z"
        class="color060405 svgShape"></path>
    <circle cx="351.8" cy="165.2" r="2.9" fill="#ffffff" class="colorfff svgShape"></circle>
    <path fill="#ffffff" d="M383.1 176.8s0-.1 0 0c-.1-.1-.1 0 0 0z" class="colorfff svgShape"></path>
    <path fill="#d2e4ff"
        d="M360.2 205.2V238c0 2.3-1.8 4.1-4.1 4.1h-41.7c-2.3 0-4.1-1.8-4.1-4.1v-32.7c0-2.3 1.8-4.1 4.1-4.1h41.7c2.3-.1 4.1 1.8 4.1 4z"
        class="colord2e4ff svgShape"></path>
    <path fill="#ffffff"
        d="M350 231h-29.6c-.7 0-1.1-.9-.6-1.4l6.5-7.6c.3-.4 1-.4 1.3 0l3.2 3.7c.4.4 1 .4 1.3 0l7.2-9.7c.3-.5 1-.5 1.4 0l10.1 13.7c.3.5-.1 1.3-.8 1.3z"
        class="colorfff svgShape"></path>
    <circle cx="329.3" cy="214.4" r="2.2" fill="#ffffff" class="colorfff svgShape"></circle>
    <path fill="#d2e4ff"
        d="M416.2 205.2V238c0 2.3-1.8 4.1-4.1 4.1h-41.7c-2.3 0-4.1-1.8-4.1-4.1v-32.7c0-2.3 1.8-4.1 4.1-4.1h41.7c2.3-.1 4.1 1.8 4.1 4zM472.2 205.2V238c0 2.3-1.8 4.1-4.1 4.1h-41.7c-2.3 0-4.1-1.8-4.1-4.1v-32.7c0-2.3 1.8-4.1 4.1-4.1h41.7c2.2-.1 4.1 1.8 4.1 4z"
        class="colord2e4ff svgShape"></path>
    <path fill="#ffffff"
        d="M463.5 152.3c0-1-.8-1.8-1.8-2l-2-.4c-.7-.1-1.3-.6-1.5-1.2-.1-.2-.2-.5-.3-.7-.3-.6-.3-1.4.1-2l1-1.7c.5-.9.3-2-.4-2.7l-4.5-4.2c-.7-.7-1.8-.8-2.7-.2l-1.7 1.1c-.6.4-1.3.5-2 .2-.2-.1-.5-.2-.7-.3-.7-.2-1.2-.8-1.3-1.5l-.5-1.9c-.3-1-1.2-1.6-2.2-1.6l-6.2.2c-1 0-1.8.7-2 1.7l-.4 2c-.1.7-.6 1.3-1.2 1.5-.2.1-.5.2-.7.3-.6.3-1.4.3-2-.1l-1.7-1c-.9-.5-2-.3-2.7.4l-4.2 4.5c-.7.7-.8 1.8-.2 2.7l1.1 1.6c.4.6.5 1.3.2 2-.1.2-.2.5-.3.7-.2.7-.8 1.2-1.5 1.3l-1.9.5c-1 .2-1.6 1.2-1.6 2.2l.2 6.2c0 1 .7 1.9 1.7 2l1.9.4c.7.1 1.3.6 1.6 1.2.1.2.2.5.3.7.3.6.3 1.4-.1 2l-1 1.7c-.5.9-.3 2 .4 2.7l4.5 4.2c.7.7 1.8.8 2.7.2l1.6-1.1c.6-.4 1.3-.5 2-.2.2.1.5.2.7.3.7.2 1.1.8 1.3 1.5l.5 1.9c.2 1 1.2 1.6 2.2 1.6l6.2-.2c1 0 1.8-.8 2-1.8l.4-2c.1-.7.6-1.3 1.2-1.5.2-.1.5-.2.7-.3.6-.3 1.4-.3 2 .1l1.7 1c.9.5 2 .3 2.7-.4l4.2-4.5c.7-.7.8-1.8.2-2.7l-1.1-1.7c-.4-.6-.5-1.3-.2-1.9.1-.2.2-.5.2-.7.2-.7.8-1.1 1.5-1.3l1.9-.5c1-.3 1.6-1.2 1.6-2.2l.1-6.1zm-22.7 15.2c-6.3 0-11.4-5.1-11.4-11.4 0-6.3 5.1-11.4 11.4-11.4s11.4 5.1 11.4 11.4c0 6.4-5.1 11.4-11.4 11.4z"
        class="colorfff svgShape"></path>
    <path fill="#6193f6"
        d="M492.1 414.7c-.2-2.5.4-5.1 1.7-7.4.5-.9 1.4-2.6 2.3-3 .9-.4 3.1 1.1 4 1.6 0-1.7 0-3.3.4-4.9 2.5-1.4 4.3-3.1 6-5.4 1.9 3.5 4.9 10.7 4 14.5-.4 1.6-1.4 3-2.6 4.1-1.2 1.1-2.6 2-4 2.9-2.5 1.6-6-.4-8.7-1.7-1.1-.5-1.8-.7-3.1-.7z"
        class="color6193f6 svgShape"></path>
    <path fill="#6193f6"
        d="M535 350.4c6.5 23.9-29 32.3-39.5 48.2-4 5.9-6.3 13.1-6.5 20.4-.5-7.3 1.4-14.8 5.4-21.1 8-13.1 23.6-16.9 33.6-27.7 4.7-5.1 8.1-13 7-19.8z"
        class="color6193f6 svgShape"></path>
    <path fill="#6193f6"
        d="M535 350.4s7.1 15.2-1.6 26.6l-2.7-.8v2.7s-5.2 2.9-13 1.5v-.9l3.6-2.3 3.4-2.3c.7-.9-2.6 3.3 7.1-8.8l2.1-3.3 1.6-7.1-.5-5.3zM541 403.5s-4 2.7-10.8 1.6c-6.8-1.2-20.7-15.4-31.8-11.2 1.4-1.3 4.2-4.2 4.1-4 0 0 16.3-9.1 27.6-5.3 11.4 3.8 10.9 18.9 10.9 18.9z"
        class="color6193f6 svgShape"></path>
    <path
        d="M541 403.5s-4 2.7-10.8 1.6c-6.8-1.2-20.7-15.4-31.8-11.2 2.7-1.7 8.5-5 11.7-5 6.4.2 10.1 3.3 17.5 9.6 7.5 6.2 13.4 5 13.4 5z"
        opacity=".1" fill="#000000" class="color000 svgShape"></path>
    <path fill="#6193f6"
        d="M494.2 380.8s22.4 1 28.3-18.9l-7.9-1.8 8.4-4.7s.7-13.5 4.2-18c-.1 0-47.3 5.6-33 43.4zM485.7 413.5c1.5-15.3-4.2-30.8-19.8-35.3 3.1.9 3.1.8 4 1.2 13.8 6.5 18 20.6 15.8 34.1z"
        class="color6193f6 svgShape"></path>
    <path fill="#6193f6"
        d="M478.2 385.3c-20.4 5.4-20.8-14.8-20.8-14.8 4.4 4.2 11 2.4 16.3 5.4 5.4 3 4.5 9.4 4.5 9.4zM487.1 413.1c-.9-13.1-1.6-25.2-6.5-38.6 4.6 10.3 6.3 22.4 6.5 33.7 0 1.6-.1 3.3 0 4.9z"
        class="color6193f6 svgShape"></path>
    <path fill="#6193f6"
        d="M481.5 377.4c-3-7.1-21.5-15.9-26-20.5-4.4-4.6-3.2-12-3.2-12 4.2 4.1 13.9 4.5 25.1 12.1s4.1 20.4 4.1 20.4zM483 408.5s.4-16-8.3-18.1c-8.7-2-12.6 0-12.6 0l.3 2.5-3.2-2.4s-6.5 1.8-9.1 1.3c0 0 1.4 4.7 9.2 6.5 8 2 18.4 2.5 23.7 10.2z"
        class="color6193f6 svgShape"></path>
    <path fill="#6193f6" d="M482.4 406.6c1.1 2.4 1.3 5.5.6 7.8l-.1-2-.1-1.9s-.4-3.8-.4-3.9z"
        class="color6193f6 svgShape"></path>
    <path
        d="M481.5 377.4c-3-7.1-21.5-15.9-26-20.5-4.4-4.6-3.2-12-3.2-12s-.2 7.8 6.4 9.6c6.6 1.8 20.9 10.4 22.8 22.9z"
        opacity=".1" fill="#000000" class="color000 svgShape"></path>
    <path fill="#6193f6"
        d="M489.6 413.1c-1.2-18.5 4.6-41.5 16.6-55.9 4.1-5.2 9.2-9.6 14.7-13.1-2.6 2-5.3 3.9-7.6 6.3-16.2 14.6-23.9 41.2-23.7 62.7z"
        class="color6193f6 svgShape"></path>
    <path fill="#ffffff"
        d="M500.4 439.7h-18.3c-1.1 0-2-.7-2.2-1.8l-4.8-21.7h32.2l-4.8 21.7c-.1 1-1 1.8-2.1 1.8z"
        class="colorfff svgShape"></path>
    <path fill="#d2e4ff"
        d="m502.8 436.6-.3 1.3c-.2 1-1.1 1.8-2.2 1.8H482c-1.1 0-2-.7-2.2-1.8l-4.8-21.7h3.1l1.2 5.5c1.9 8.7 9.6 14.9 18.5 14.9h5z"
        class="colord2e4ff svgShape"></path>
    <path fill="#060405"
        d="M500.4 440.2h-18.3c-1.3 0-2.4-.9-2.7-2.2l-4.9-22.3H508l-4.9 22.3c-.3 1.3-1.4 2.2-2.7 2.2zm-24.6-23.5 4.6 21.1c.2.8.9 1.4 1.7 1.4h18.3c.8 0 1.5-.6 1.7-1.4l4.6-21.1h-30.9z"
        class="color060405 svgShape"></path>
    <path fill="#ffffff"
        d="M509.7 417.4h-36.8c-.5 0-.9-.4-1-.8l-1.1-5.4c-.1-.6.4-1.2 1-1.2h38.9c.7 0 1.1.6 1 1.2l-1.1 5.4c0 .4-.4.8-.9.8z"
        class="colorfff svgShape"></path>
    <path fill="#060405"
        d="M509.7 417.9h-36.8c-.7 0-1.4-.5-1.5-1.2l-1.1-5.4c-.2-1 .5-1.8 1.5-1.8h38.9c.5 0 .9.2 1.2.6.3.4.4.8.3 1.3l-1.1 5.4c-.1.6-.7 1.1-1.4 1.1zm-38.3-7.3c-.3.4-.1.3 1 5.9 0 .3.3.4.5.4h36.8c.3 0 .5-.2.5-.4l1.1-5.4c0-.2 0-.3-.1-.4-.1-.1-.3-.2-.4-.2-41.4-.1-39.1-.3-39.4.1z"
        class="color060405 svgShape"></path>
    <path fill="#c6e2fa"
        d="M274.6 386.1h-35.1c-.2 0-.4-.2-.4-.4s.2-.4.4-.4h35.1c.2 0 .4.2.4.4s-.2.4-.4.4zM274.6 403.5h-35.1c-.2 0-.4-.2-.4-.4s.2-.4.4-.4h35.1c.2 0 .4.2.4.4s-.2.4-.4.4zM268.2 394.8h-49.7c-.2 0-.4-.2-.4-.4s.2-.4.4-.4h49.7c.2 0 .4.2.4.4s-.2.4-.4.4z"
        class="colorc6e2fa svgShape"></path>
    <path fill="#c6e2fa"
        d="M246.7 386.1c-.2 0-.4-.2-.4-.4v-7.4c0-.2.2-.4.4-.4s.4.2.4.4v7.4c0 .2-.2.4-.4.4zM259 394.8c-.2 0-.4-.2-.4-.4v-8.7c0-.2.2-.4.4-.4s.4.2.4.4v8.7c0 .2-.1.4-.4.4zM249.7 403.2c-.2 0-.4-.2-.4-.4v-8.4c0-.2.2-.4.4-.4s.4.2.4.4v8.4c-.1.2-.2.4-.4.4zM537.3 223.6h-35.1c-.2 0-.4-.2-.4-.4s.2-.4.4-.4h35.1c.2 0 .4.2.4.4s-.1.4-.4.4zM537.3 241.1h-35.1c-.2 0-.4-.2-.4-.4s.2-.4.4-.4h35.1c.2 0 .4.2.4.4s-.1.4-.4.4zM531 232.4h-49.7c-.2 0-.4-.2-.4-.4s.2-.4.4-.4H531c.2 0 .4.2.4.4s-.2.4-.4.4z"
        class="colorc6e2fa svgShape"></path>
    <path fill="#c6e2fa"
        d="M509.5 223.6c-.2 0-.4-.2-.4-.4v-7.4c0-.2.2-.4.4-.4s.4.2.4.4v7.4c-.1.3-.2.4-.4.4zM521.8 232.4c-.2 0-.4-.2-.4-.4v-8.7c0-.2.2-.4.4-.4s.4.2.4.4v8.7c0 .2-.2.4-.4.4zM512.4 240.8c-.2 0-.4-.2-.4-.4V232c0-.2.2-.4.4-.4s.4.2.4.4v8.4c0 .2-.2.4-.4.4zM173 88.8h-35.1c-.2 0-.4-.2-.4-.4s.2-.4.4-.4H173c.2 0 .4.2.4.4s-.2.4-.4.4zM173 106.2h-35.1c-.2 0-.4-.2-.4-.4s.2-.4.4-.4H173c.2 0 .4.2.4.4s-.2.4-.4.4zM166.6 97.5h-49.7c-.2 0-.4-.2-.4-.4s.2-.4.4-.4h49.7c.2 0 .4.2.4.4s-.2.4-.4.4z"
        class="colorc6e2fa svgShape"></path>
    <path fill="#c6e2fa"
        d="M145.1 88.8c-.2 0-.4-.2-.4-.4V81c0-.2.2-.4.4-.4s.4.2.4.4v7.4c0 .2-.2.4-.4.4zM157.4 97.5c-.2 0-.4-.2-.4-.4v-8.7c0-.2.2-.4.4-.4s.4.2.4.4v8.7c0 .2-.2.4-.4.4zM148 105.9c-.2 0-.4-.2-.4-.4v-8.4c0-.2.2-.4.4-.4s.4.2.4.4v8.4c0 .2-.2.4-.4.4zM508.1 96.9h-26.3c-.2 0-.4-.2-.4-.4s.2-.4.4-.4h26.3c.2 0 .4.2.4.4s-.2.4-.4.4zM508.1 109.9h-26.3c-.2 0-.4-.2-.4-.4s.2-.4.4-.4h26.3c.2 0 .4.2.4.4s-.2.4-.4.4zM503.3 103.4h-37.2c-.2 0-.4-.2-.4-.4s.2-.4.4-.4h37.2c.2 0 .4.2.4.4s-.1.4-.4.4z"
        class="colorc6e2fa svgShape"></path>
    <path fill="#c6e2fa"
        d="M487.2 96.9c-.2 0-.4-.2-.4-.4V91c0-.2.2-.4.4-.4s.4.2.4.4v5.5c0 .2-.1.4-.4.4zM496.5 103.4c-.2 0-.4-.2-.4-.4v-6.5c0-.2.2-.4.4-.4s.4.2.4.4v6.5c0 .2-.2.4-.4.4zM489.5 109.7c-.2 0-.4-.2-.4-.4V103c0-.2.2-.4.4-.4s.4.2.4.4v6.3c-.1.2-.2.4-.4.4z"
        class="colorc6e2fa svgShape"></path>
</svg>