<svg xmlns="http://www.w3.org/2000/svg" viewBox="0 0 1364 960"><ellipse cx="681.563" cy="883.739" fill="#167ffc" rx="468.36" ry="24.029" class="colorDBE1FF svgShape"/><ellipse cx="713.426" cy="884.425" fill="#e4f5e7" rx="283.937" ry="12.888" class="colorE4EBF5 svgShape"/><path fill="#fe9526" d="M1075.501 511.994c-20.783-33.615-66.086-37.719-96.439-24.393-25.374 11.14-29.851 28.193-18.833 42.634 6.748 8.845 23.259 11.755 39.407-1.415 8.755-7.14 29.438-6.718 35.18 6.714 17.105 40.017-48.494 40.972-68.391 89.129-3.179 7.695.774 16.476 8.663 19.134 6.244 2.104 13.177-.276 16.669-5.863 13.379-21.399 53.947-30.025 76.205-50.738 19.444-18.092 23.937-48.68 7.539-75.202zM971.309 651.645c-9.209-3.06-19.155 1.925-22.214 11.134v.001c-3.06 9.209 1.925 19.154 11.134 22.214 9.209 3.06 19.155-1.925 22.214-11.134 3.06-9.21-1.925-19.155-11.134-22.215zM1081.752 680.148c6.388 2.122 12.29-1.653 15.155-8.22l53.182-125.757c4.205-12.655-2.02-26.115-13.904-30.063-11.884-3.948-24.926 3.11-29.131 15.765l-32.529 132.639c-1.623 6.97.846 13.516 7.227 15.636zM1079.38 687.075c-9.209-3.06-19.155 1.925-22.214 11.134-3.06 9.209 1.925 19.154 11.134 22.214 9.209 3.06 19.155-1.925 22.214-11.134 3.06-9.209-1.925-19.154-11.134-22.214z" class="colorF47840 svgShape"/><path fill="#ffb76b" d="M1070.301 510.266c-20.783-33.615-66.086-37.719-96.44-24.393-25.374 11.14-29.851 28.193-18.833 42.635 6.748 8.845 23.259 11.755 39.407-1.415 8.755-7.14 29.438-6.718 35.18 6.714 17.105 40.017-48.494 40.972-68.391 89.129-3.179 7.695.774 16.476 8.663 19.134 6.244 2.104 13.177-.276 16.669-5.863 13.379-21.399 53.947-30.025 76.205-50.738 19.445-18.092 23.938-48.681 7.54-75.203zM966.109 649.917c-9.209-3.06-19.155 1.925-22.214 11.134-3.06 9.209 1.925 19.154 11.134 22.214 9.209 3.06 19.155-1.925 22.214-11.134 3.06-9.209-1.925-19.154-11.134-22.214zM1076.552 678.42c6.388 2.122 12.289-1.653 15.155-8.219l53.182-125.757c4.205-12.655-2.02-26.115-13.904-30.063-11.884-3.948-24.926 3.11-29.131 15.765l-32.529 132.639c-1.623 6.969.846 13.515 7.227 15.635zM1074.18 685.347c-9.209-3.06-19.154 1.925-22.214 11.134-3.06 9.209 1.925 19.155 11.134 22.214 9.209 3.06 19.155-1.925 22.214-11.134 3.06-9.208-1.925-19.154-11.134-22.214z" class="colorFF9F6B svgShape"/><path fill="#666666" d="M962.629 508.548c4.818-4.553 10.5-8.179 16.45-11.067 6.883-3.341 14.42-5.743 22.125-5.83 2.9-.033 3.164-4.562.235-4.529-15.114.17-30.905 7.722-41.803 18.02-2.121 2.004.869 5.413 2.993 3.406zM1105.16 540.75a1525.249 1525.249 0 0 0-9.28 36.468c-.679 2.816 3.618 4.271 4.303 1.43a1520.488 1520.488 0 0 1 9.28-36.468c.75-2.807-3.548-4.255-4.303-1.43zM951.773 668.968c-1.961-6.345 3.934-13.268 10.51-12.16 2.347.395 2.526-3.312.192-3.706-8.819-1.485-16.95 8.163-14.332 16.633.699 2.262 4.337 1.52 3.63-.767zM1059.841 704.875c-1.961-6.345 3.934-13.268 10.51-12.161 2.347.395 2.526-3.312.192-3.705-8.819-1.485-16.95 8.163-14.332 16.633.699 2.261 4.337 1.52 3.63-.767zM1011.849 491.473c3.18-.457 6.25-.184 9.306.812 2.773.904 4.209-3.397 1.43-4.303-3.826-1.247-7.7-1.517-11.673-.946-2.889.415-1.946 4.851.937 4.437zM1093.925 585.133l-1.772 6.798c-.732 2.809 3.565 4.259 4.303 1.43l1.771-6.798c.732-2.81-3.565-4.26-4.302-1.43z" class="color666 svgShape"/><path fill="#53d86a" d="M1032.854 860.015a312.789 312.789 0 0 0-7.252-18.427c-1.639-3.807-3.39-7.64-6.101-10.775-2.753-3.186-6.365-5.497-9.998-7.624a169.006 169.006 0 0 0-31.001-14.162 45.56 45.56 0 0 1 10.546 12.001c4.647 7.677 6.907 16.513 9.586 25.078 2.678 8.565 5.988 17.244 12.199 23.722 6.211 6.478 15.991 10.273 24.399 7.134l-2.378-16.947z" class="color33A398 svgShape"/><path fill="#117a23" d="M1111.335 804.263c-10.472-3.202-21.934-.269-31.7 4.687-3.238 1.643-6.392 3.526-9.033 6.018-3.334 3.146-5.731 7.147-7.838 11.218-6.976 13.478-10.857 36.871-8.722 51.896h19.106c6.662-3.536 10.509-13.371 11.758-20.809 1.568-9.339-2.289-18.97-.643-28.295 2.249-12.749 14.469-21.757 27.072-24.715z" class="color117A72 svgShape"/><path fill="#53d86a" d="M1105.423 830.293c-9.056 1.689-17.898 5.872-23.782 12.96-2.935 3.536-5.05 7.666-7.139 11.76-3.124 6.12-6.249 16.95-9.373 23.07h27.395c4.752-.492 9.144-3.624 11.157-7.956 3.156-6.79.451-14.931 2.324-22.179 1.436-5.552 5.542-10.179 10.502-13.055 4.961-2.876 10.719-4.138 16.439-4.533-9.14-1.151-18.467-1.757-27.523-.067z" class="color33A398 svgShape"/><path fill="#117a23" d="M1043.097 829.922c-6.204-15.945-17.568-30.792-33.598-36.77 5.217 3.665 7.984 7.722 9.306 13.24a121.807 121.807 0 0 1 3.354 28.823c-.02 5.411-.396 10.878.629 16.191 1.519 7.869 5.627 19.962 10.001 26.677h9.266c8.706-14.19 7.079-32.648 1.042-48.161z" class="color117A72 svgShape"/><path fill="#53d86a" d="M1056.71 857.81c.239-3.924.481-7.858 1.187-11.724 2.749-15.055 12.463-28.86 11.575-44.138-.31-5.336-.59-10.586-2.189-15.686-2.795-8.912-4.828-18.469-9.718-26.652 1.785 6.841 3.283 13.076 1.386 19.507-1.897 6.43-5.419 12.235-8.704 18.078-5.152 9.164-9.854 18.749-11.917 29.057-2.753 13.742 1.189 37.97 3.269 51.83h17.756c-3.395-6.026-3.067-13.369-2.645-20.272zM276.077 862.873a311.822 311.822 0 0 0-7.252-18.427c-1.639-3.807-3.39-7.64-6.101-10.775-2.753-3.186-6.365-5.497-9.998-7.625a169.006 169.006 0 0 0-31.001-14.162 45.56 45.56 0 0 1 10.546 12.001c4.647 7.677 6.907 16.513 9.586 25.078 2.678 8.565 5.988 17.245 12.199 23.722 6.211 6.478 15.991 10.273 24.399 7.134l-2.378-16.946z" class="color33A398 svgShape"/><path fill="#117a23" d="M354.558 807.121c-10.473-3.202-21.934-.269-31.7 4.687-3.238 1.643-6.392 3.526-9.033 6.018-3.334 3.146-5.731 7.147-7.838 11.218-6.976 13.478-10.857 36.871-8.722 51.896h19.106c6.662-3.536 10.509-13.371 11.758-20.809 1.568-9.339-2.289-18.97-.643-28.295 2.249-12.748 14.469-21.757 27.072-24.715z" class="color117A72 svgShape"/><path fill="#53d86a" d="M348.646 833.151c-9.055 1.69-17.897 5.872-23.781 12.959-2.935 3.536-5.05 7.666-7.139 11.76-3.124 6.12-6.249 16.95-9.373 23.07h27.395c4.752-.492 9.144-3.624 11.157-7.956 3.156-6.789.451-14.931 2.324-22.179 1.436-5.552 5.542-10.179 10.502-13.055 4.961-2.876 10.718-4.138 16.439-4.533-9.14-1.15-18.468-1.756-27.524-.066z" class="color33A398 svgShape"/><path fill="#117a23" d="M286.321 832.78c-6.204-15.945-17.568-30.793-33.598-36.77 5.217 3.664 7.984 7.722 9.306 13.24a121.807 121.807 0 0 1 3.354 28.823c-.02 5.412-.396 10.878.629 16.191 1.519 7.869 5.627 19.962 10.001 26.677h9.266c8.705-14.19 7.079-32.647 1.042-48.161z" class="color117A72 svgShape"/><path fill="#53d86a" d="M299.933 860.668c.24-3.924.481-7.857 1.187-11.724 2.749-15.055 12.463-28.86 11.575-44.138-.31-5.336-.59-10.586-2.189-15.686-2.795-8.913-4.828-18.469-9.718-26.652 1.785 6.842 3.283 13.076 1.386 19.507-1.897 6.43-5.419 12.235-8.704 18.078-5.152 9.164-9.854 18.749-11.917 29.057-2.753 13.742 1.189 37.97 3.269 51.83h17.756c-3.394-6.026-3.067-13.369-2.645-20.272z" class="color33A398 svgShape"/><path fill="#dbdcfc" d="M399.747 323.762c-2.021 0-3.973.277-5.848.746-1.379-7.656-8.061-13.469-16.115-13.469-1.332 0-2.62.176-3.86.476.033-.515.078-1.026.078-1.549 0-13.306-10.787-24.092-24.092-24.092-2.866 0-5.602.526-8.151 1.444-4.191-13.806-17.01-23.859-32.186-23.859-17.075 0-31.144 12.732-33.317 29.213a33.903 33.903 0 0 0-18.63-5.562c-18.824 0-34.084 15.259-34.084 34.083 0 2.563.306 5.051.842 7.452a21.854 21.854 0 0 0-3.768-.348c-12.026 0-21.775 9.749-21.775 21.776 0 11.666 9.18 21.161 20.706 21.722l-.012.054h177.836l-.078-.124a24.28 24.28 0 0 0 2.455.124c13.279 0 24.044-10.765 24.044-24.044-.001-13.278-10.766-24.043-24.045-24.043zM531.905 150.101c-1.051 0-2.065.144-3.04.388-.717-3.979-4.19-7.001-8.376-7.001-.692 0-1.362.092-2.006.248.017-.268.041-.533.041-.805 0-6.916-5.607-12.522-12.523-12.522-1.49 0-2.911.274-4.237.751-2.178-7.176-8.841-12.401-16.729-12.401-8.875 0-16.188 6.617-17.317 15.184a17.622 17.622 0 0 0-9.683-2.891c-9.784 0-17.716 7.931-17.716 17.715 0 1.332.159 2.625.438 3.873a11.38 11.38 0 0 0-1.959-.181c-6.251 0-11.318 5.067-11.318 11.318 0 6.063 4.772 10.998 10.763 11.29l-.006.028h92.433l-.041-.064c.42.043.845.064 1.276.064 6.902 0 12.497-5.595 12.497-12.497s-5.595-12.497-12.497-12.497zM392.725 206.204a12.42 12.42 0 0 0-3.026.386c-.714-3.961-4.171-6.969-8.338-6.969-.689 0-1.355.091-1.997.246.017-.266.041-.531.041-.802 0-6.884-5.581-12.465-12.465-12.465-1.483 0-2.898.272-4.218.747-2.168-7.143-8.801-12.345-16.653-12.345-8.835 0-16.114 6.587-17.238 15.115a17.541 17.541 0 0 0-9.639-2.878c-9.74 0-17.635 7.895-17.635 17.634 0 1.326.158 2.613.436 3.856a11.286 11.286 0 0 0-1.95-.18c-6.223 0-11.267 5.044-11.267 11.267 0 6.036 4.75 10.948 10.714 11.239l-.006.028h92.012l-.041-.064c.418.042.841.064 1.27.064 6.871 0 12.44-5.57 12.44-12.44 0-6.869-5.57-12.439-12.44-12.439zM964.253 381.514c2.021 0 3.973.277 5.848.746 1.379-7.656 8.061-13.469 16.115-13.469 1.332 0 2.62.177 3.86.476-.033-.515-.078-1.026-.078-1.549 0-13.306 10.787-24.092 24.092-24.092 2.866 0 5.602.526 8.151 1.444 4.191-13.806 17.01-23.859 32.186-23.859 17.075 0 31.144 12.732 33.317 29.213a33.903 33.903 0 0 1 18.63-5.562c18.824 0 34.084 15.26 34.084 34.083 0 2.563-.306 5.051-.843 7.452a21.854 21.854 0 0 1 3.768-.348c12.026 0 21.776 9.749 21.776 21.776 0 11.666-9.18 21.161-20.707 21.722l.012.054H966.629l.078-.124a24.28 24.28 0 0 1-2.455.124c-13.279 0-24.044-10.765-24.044-24.044.001-13.278 10.766-24.043 24.045-24.043zM835.663 309.47c1.241 0 2.439.17 3.591.458.847-4.701 4.95-8.27 9.894-8.27.818 0 1.609.108 2.37.292-.02-.316-.048-.63-.048-.951 0-8.17 6.623-14.793 14.793-14.793 1.76 0 3.44.323 5.005.887 2.573-8.477 10.445-14.65 19.763-14.65 10.484 0 19.123 7.817 20.457 17.937a20.812 20.812 0 0 1 11.439-3.415c11.558 0 20.928 9.37 20.928 20.927 0 1.574-.188 3.101-.517 4.576a13.365 13.365 0 0 1 2.314-.214c7.384 0 13.37 5.986 13.37 13.371 0 7.163-5.637 12.993-12.714 13.337l.007.033H837.122l.048-.076c-.496.05-.998.076-1.507.076-8.154 0-14.763-6.61-14.763-14.763s6.61-14.762 14.763-14.762zM952.145 230.707c1.241 0 2.439.17 3.591.458.847-4.701 4.95-8.27 9.894-8.27.818 0 1.609.108 2.37.292-.02-.316-.048-.63-.048-.951 0-8.17 6.623-14.793 14.793-14.793 1.76 0 3.44.323 5.005.887 2.573-8.477 10.445-14.65 19.763-14.65 10.484 0 19.123 7.817 20.457 17.937a20.815 20.815 0 0 1 11.439-3.415c11.558 0 20.928 9.37 20.928 20.927 0 1.574-.188 3.101-.517 4.576a13.365 13.365 0 0 1 2.314-.214c7.384 0 13.37 5.986 13.37 13.371 0 7.163-5.637 12.993-12.714 13.337l.007.033H953.604l.048-.076c-.496.05-.998.076-1.507.076-8.153 0-14.763-6.61-14.763-14.763 0-8.153 6.61-14.762 14.763-14.762z" class="colorE1DBFC svgShape"/><path fill="#4d4d4d" d="M863.42 238.555v606.709c0 12.376-10.045 22.405-22.419 22.405h-318.49c-12.375 0-22.405-10.029-22.405-22.405V238.555c0-12.376 10.031-22.421 22.405-22.421H841c12.375.001 22.42 10.045 22.42 22.421z" class="color4D4D4D svgShape"/><path fill="#ffffff" d="M863.42 238.555v606.709c0 12.376-10.045 22.405-22.419 22.405h-318.49c-12.375 0-22.405-10.029-22.405-22.405V238.555c0-12.376 10.031-22.421 22.405-22.421H841c12.375.001 22.42 10.045 22.42 22.421z" class="colorFFF svgShape"/><path fill="#4d4d4d" d="M856.406 197.84H506.721c-12.919 0-23.381 10.731-23.381 23.985v639.173c0 13.254 10.461 23.999 23.381 23.999h349.685c12.921 0 23.381-10.745 23.381-23.999V221.825c0-13.254-10.46-23.985-23.381-23.985zm7.014 647.425c0 12.376-10.032 22.405-22.405 22.405H522.511c-12.375 0-22.405-10.029-22.405-22.404V238.555c0-12.382 10.038-22.421 22.421-22.421h126.047c1.643 0 2.948 1.314 3.016 2.956.664 15.83 14.049 28.728 30.173 28.728 16.138 0 29.492-12.858 30.157-28.728.068-1.641 1.373-2.956 3.017-2.956H841c12.381 0 22.419 10.038 22.419 22.421v606.71z" class="color4D4D4D svgShape"/><path fill="#b3b3b3" d="M672.079 222.102a9.685 9.685 0 1 1 19.368 0c0 5.348-4.335 9.684-9.685 9.684-5.348 0-9.683-4.336-9.683-9.684z" class="colorB3B3B3 svgShape"/><path fill="#666666" d="M674.57 222.102a7.192 7.192 0 1 1 14.384.002 7.192 7.192 0 0 1-14.384-.002z" class="color666 svgShape"/><path fill="#ffffff" d="M677.976 218.902a2.04 2.04 0 1 1 4.08 0 2.04 2.04 0 0 1-4.08 0z" class="colorFFF svgShape"/><path fill="#363636" d="M868.033 571.729c-.544-1.632-3.998-16.811 7.887-19.473 11.063-2.479 14.238 3.775 17.504 4.278 15.008 2.312 10.519 21.734 9.794 28.115-2.99 26.301 53.119 39.595 42.72 62.084-10.398 22.489-46.991 27.189-70.398 14.993-44.599-23.238-20.457-65.203-12.586-73.966 8.525-9.492 5.079-16.031 5.079-16.031z" class="color363636 svgShape"/><path fill="#ffe4c7" d="M878.821 873.084c-.284 3.722 3.88 7.622 4.106 11.447-15.829 3.383-21.795 6.048-40.072 5.051-1.579-5.899 3.371-8.818 12.196-11.475 5.036-1.516 8.391-6.238 8.212-11.494-2.118-62.058-25.232-131.281-10.998-191.777 4.982-.112 5.341 1.378 11.191 1.138 5.851-.24 15.862-.937 22.581-1.353 1.984 58.639-6.824 193.318-7.216 198.463z" class="colorFFCBC7 svgShape"/><path fill="#ffe4c7" d="M971.669 813.827c3.551-1.235 9.465 5.757 13.041 4.849-3.206 14.663-9.704 20.535-16.417 34.016-3.212-6.558-2.581-13.974-2.898-21.178a7.962 7.962 0 0 0-5.73-7.302c-17.614-5.113-63.446-20.764-70.274-35.763-14.239-31.275-33.645-67.01-26.377-112.469 9.407-.293 18.815-1.108 28.186-1.55 17.545 25.254 22.052 93.063 26.446 100.516 8.522 14.453 46.336 33.387 54.023 38.881z" class="colorFFCBC7 svgShape"/><path fill="#2b2b2b" d="M850.166 879.614c-3.917 1.907-15.592 4.967-12.461 12.379 3.131 7.411 35.912.078 42.619-3.822 6.706-3.898.326-9.984-1.708-14.497-6.024 12.036-27.203 14.04-31.647 12.378-4.491-1.678 2.434-5.654 3.197-6.438zM965.683 842.573c.199 2.7-2.348 17.129 4.287 15.763 6.634-1.365 14.901-30.588 15.613-37.914.706-7.269-11.236-7.671-13.806-6.631 9.516 6.63 4.515 27.08-2.947 32.116-2.595 1.75-3.207-2.096-3.147-3.334zM938.1 770.24s-8.939 9.877-17.34 7.832c0 0-9.307 14.103-23.926 4.364-11.078 6.854-22.142 6.854-33.22 0-14.606 9.74-23.927-4.364-23.927-4.364-8.401 2.045-17.339-7.832-17.339-7.832 8.021-37.75 25.36-69.994 29.564-96.816l40.236 1.332c12.438 12.378 20.401 64.04 45.952 95.484z" class="color2B2B2B svgShape"/><path fill="#ffe4c7" d="M829.281 535.223c-.065-.065-1.253-.804-1.275-4.507-.007-1.103 2.201-7.265.085-8.494-1.599-.93-3.137 4.737-3.542 4.598-3.445-1.189-4.693-12.865-9.015-11.568-2.38.714-.194 11.736 3.545 17.248.415.612.389 5.619.389 5.619l9.813-2.896z" class="colorFFCBC7 svgShape"/><path fill="#ffb76b" d="M873.873 622.863c-12.569-4.393-35.66-25.066-41.417-34.821-2.639-6.317-11.613-40.573-13.888-49.317a2.412 2.412 0 0 1 1.487-2.857 43.864 43.864 0 0 1 7.889-2.223 2.413 2.413 0 0 1 2.704 1.555l15.21 42.434c5.861 3.789 41.964 19.501 45.44 31.864 2.783 9.894-5.072 17.682-17.425 13.365z" class="colorFF9F6B svgShape"/><path fill="#f5b067" d="M820.056 535.868c.336-.129.672-.253 1.009-.374 2.391 9.187 11.199 42.773 13.811 49.022 16.105 29.814 25.565 16.189 35.558 16.189 6.473 0 1.861 17.235 5.858 18.632 6.432 2.248 11.64 1.21 14.767-1.695-2.166 5.359-8.583 8.227-17.187 5.221-12.569-4.393-35.66-25.066-41.417-34.821-2.639-6.316-11.613-40.573-13.888-49.317a2.416 2.416 0 0 1 1.489-2.857z" class="colorF59967 svgShape"/><path fill="#f7a34b" d="M849.902 677.365c.076.314.221.655.523.805 16.911 8.373 45.439 4.261 45.159-2.622-1.157-28.403 19.375-57.65-7.566-79.44-4.05-.1-8.292-1.335-12.156-.119-20.266 6.38-23.676 26.526-24.276 46.107-.361 11.947.321 23.683-1.136 31.952l-.02.099c-.036.228-.08.451-.123.673-.123.61-.255 1.2-.404 1.766a1.546 1.546 0 0 0-.001.779z" class="colorF77F4B svgShape"/><path fill="#ffe4c7" d="M888.605 598.73c.563-.299 1.074-.58 1.505-.826-.796-3.729-1.359-11.742-1.545-16.614a70.327 70.327 0 0 1-.063-3.023c-2.204 1.839-6.26 2.764-7.871 5.22-1.61 2.452-2.83 11.54-2.95 12.053-2.15 9.086 6.254 5.639 10.924 3.19z" class="colorFFCBC7 svgShape"/><path fill="#fad8b4" d="M879.007 589.079s4.406-.492 6.761-.599c2.838-.129 2.827 8.003 2.836 10.25.563-.299 1.074-.58 1.505-.826-.796-3.729-1.359-11.742-1.545-16.614-3.73 3.03-9.557 7.789-9.557 7.789z" class="colorFABAB4 svgShape"/><path fill="#ffe4c7" d="M871.056 588.06c-5.857-2.622-4.41-22.065.455-28.248 5.308 4.694 11.604 5.982 18.376 5.458-.598 1.6 2.216 5.337.986 7.369 1.155-1.909 5.243-1.653 4.526 2.105-.654 3.428-2.794 4.214-5.807 5.241-2.665 7.226-10.735 11.568-18.536 8.075zM818.089 680.229s-8.052-2.098-9.541-.149c-1.489 1.949 5.773 3.255 2.854 5.725-3.136 2.653-10.276-2.077-10.149 2.353.2 6.985 8.588 11.604 20.197 2.292l-3.361-10.221z" class="colorFFCBC7 svgShape"/><path fill="#ffb76b" d="M891.99 616.413c7.138 8.203-7.744 54.172-13.928 60.077-8.572 8.185-46.285 15.311-55.84 15.965a2.07 2.07 0 0 1-2.192-1.784l-2.979-8.734c-.15-1.085-.659-2.73 1.857-3.476 10.336-3.063 40.432-14.991 40.432-14.991s2.624-26.977 6.38-39.965c2.66-9.198 16.202-18.663 26.27-7.092z" class="colorFF9F6B svgShape"/><path fill="#f5b067" d="M891.99 616.413c-2.507-2.881-5.229-4.457-7.945-5.058 1.417.843 2.808 1.995 4.138 3.523 7.138 8.203-7.744 54.172-13.928 60.076-8.147 7.78-42.602 14.598-54.201 15.816a2.066 2.066 0 0 0 2.168 1.683c9.554-.654 47.268-7.779 55.84-15.965 6.184-5.903 21.066-51.871 13.928-60.075z" class="colorF59967 svgShape"/><path fill="#fad8b4" d="M872.384 560.819s-.22 6.587 6.437 9.051c0 0-1.31-2.486 1.701-5.036 0 0-.279 4.085 2.039 6.333 2.317 2.248 6.12 6.03 3.696 11.736l1.815-1.805.822-14.363-9.511-6.182-6.999.266z" class="colorFABAB4 svgShape"/><path fill="#363636" d="M868.06 568.625s.686-5.371 4.324-7.806c0 0 1.595 5.997 6.583 7.944 0 0 .137-2.819 1.555-3.929 1.273 7.28 12.148 8.726 3.997 19.815 0 0 7.451-4.356 6.62-12.555 2.104-10.844-13.361-25.093-21.687-15.681-2.135 3.752-2.916 9.447-1.392 12.212zM896.417 557.471c9.597 3.784 9.953 15.364 10.22 24.102-2.336 29.551 53.014 33.709 39.301 65.16 11.197-31.452-44.208-34.455-40.748-65.098-.079-8.786.324-19.667-8.773-24.164z" class="color363636 svgShape"/><path fill="#595bd4" d="M420.819 309.482h323.757c33.215 0 60.141 26.926 60.141 60.141v159.725c0 33.215-26.926 60.141-60.141 60.141v47.397l-58.435-47.397H420.819c-33.215 0-60.141-26.926-60.141-60.141V369.622c.001-33.214 26.927-60.14 60.141-60.14z" class="color7A76CC svgShape"/><path fill="#9c9de5" d="M413.236 295.707h323.757c33.215 0 60.141 26.926 60.141 60.141v159.725c0 33.215-26.926 60.141-60.141 60.141v47.397l-58.435-47.397H413.236c-33.215 0-60.141-26.926-60.141-60.141V355.848c0-33.215 26.926-60.141 60.141-60.141z" class="colorA39CE5 svgShape"/><path fill="#595bd4" d="M474.406 419.819h-32.943c-6.198 0-11.222-5.024-11.222-11.222v-8.96c0-6.198 5.024-11.222 11.222-11.222h41.721c6.198 0 11.222-5.024 11.222-11.222 0-6.198-5.024-11.222-11.222-11.222h-68.509c-6.197 0-11.222 5.024-11.222 11.222v110.23c0 6.198 5.024 11.222 11.222 11.222h4.344c6.198 0 11.222-5.024 11.222-11.222v-33.938c0-6.198 5.024-11.222 11.222-11.222h32.943c6.197 0 11.222-5.024 11.222-11.222v-.001c0-6.197-5.025-11.221-11.222-11.221zM568.344 379.053a20.821 20.821 0 0 0-38.732.183l-39.536 101.505c-3.354 8.612 2.998 17.904 12.241 17.904a13.136 13.136 0 0 0 12.346-8.65l4.664-12.836a13.136 13.136 0 0 1 12.347-8.65h34.806a13.137 13.137 0 0 1 12.262 8.423l5.108 13.29a13.136 13.136 0 0 0 12.262 8.423h.707c9.295 0 15.65-9.39 12.195-18.019l-40.67-101.573zm-10.018 67.102h-19.099c-4.141 0-7.023-4.116-5.606-8.007l9.454-25.975c1.898-5.216 9.268-5.24 11.2-.036l9.645 25.975c1.447 3.897-1.436 8.043-5.594 8.043zM744.034 478.736a84.354 84.354 0 0 1-7.748-4.446c-1.795-1.16-2.161-3.61-.86-5.305 3.915-5.098 6.852-10.339 8.81-15.724 3.112-8.458 4.67-18.266 4.67-29.426 0-21.085-5.61-37.487-16.827-49.204-11.219-11.718-26.402-17.576-45.549-17.576-19.324 0-34.624 5.859-45.901 17.576-11.276 11.717-16.915 28.12-16.915 49.204 0 21.144 5.623 37.561 16.871 49.248 11.246 11.689 26.796 17.532 46.649 17.532 9.544 0 18.304-1.595 26.278-4.785 1.147-.459 2.448-.346 3.474.342 9.693 6.508 14.928 9.956 15.708 10.346a64.42 64.42 0 0 0 1.96 1.028c5.101 2.561 11.319.484 13.959-4.577 2.71-5.192.648-11.59-4.579-14.233zm-24.51-35.694c-1.274 4.247-3.033 8.018-5.277 11.312-1.139 1.672-3.445 2.054-5.104.896-4.657-3.251-9.446-5.992-14.368-8.225a8.154 8.154 0 0 0-10.684 3.834l-.519 1.057c-1.824 3.714-.252 8.18 3.478 9.974.063.03.13.054.189.091 5.174 3.273 3.259 7.203-1.564 6.962h-.113c-10.102 0-18.457-3.744-25.065-11.232-6.607-7.489-9.911-18.779-9.911-33.875 0-14.859 3.304-25.99 9.911-33.39 6.608-7.401 15.227-11.101 25.858-11.101 10.629 0 19.235 3.687 25.814 11.057 6.577 7.371 9.867 18.516 9.867 33.434 0 7.223-.838 13.626-2.512 19.206z" class="color7A76CC svgShape"/><path fill="#ffffff" d="M468.004 419.819h-32.943c-6.198 0-11.222-5.024-11.222-11.222v-8.96c0-6.198 5.024-11.222 11.222-11.222h41.721c6.198 0 11.222-5.024 11.222-11.222 0-6.198-5.024-11.222-11.222-11.222h-68.509c-6.197 0-11.222 5.024-11.222 11.222v110.23c0 6.198 5.024 11.222 11.222 11.222h4.344c6.198 0 11.222-5.024 11.222-11.222v-33.938c0-6.198 5.024-11.222 11.222-11.222h32.943c6.197 0 11.222-5.024 11.222-11.222v-.001c.001-6.197-5.024-11.221-11.222-11.221zM561.943 379.053a20.821 20.821 0 0 0-38.732.183l-39.536 101.505c-3.354 8.612 2.998 17.904 12.241 17.904a13.136 13.136 0 0 0 12.346-8.65l4.664-12.836a13.136 13.136 0 0 1 12.347-8.65h34.806a13.137 13.137 0 0 1 12.262 8.423l5.108 13.29a13.136 13.136 0 0 0 12.262 8.423h.707c9.295 0 15.65-9.39 12.195-18.019l-40.67-101.573zm-10.018 67.102h-19.099c-4.141 0-7.023-4.116-5.606-8.007l9.454-25.975c1.898-5.216 9.268-5.24 11.2-.036l9.645 25.975c1.447 3.897-1.436 8.043-5.594 8.043zM737.632 478.736a84.354 84.354 0 0 1-7.748-4.446c-1.795-1.16-2.161-3.61-.86-5.305 3.915-5.098 6.852-10.339 8.811-15.724 3.112-8.458 4.669-18.266 4.669-29.426 0-21.085-5.61-37.487-16.827-49.204-11.219-11.718-26.402-17.576-45.549-17.576-19.324 0-34.624 5.859-45.901 17.576-11.276 11.717-16.915 28.12-16.915 49.204 0 21.144 5.623 37.561 16.871 49.248 11.246 11.689 26.796 17.532 46.649 17.532 9.544 0 18.304-1.595 26.278-4.785 1.147-.459 2.448-.346 3.474.342 9.693 6.508 14.929 9.956 15.709 10.346a64.42 64.42 0 0 0 1.96 1.028c5.101 2.561 11.319.484 13.959-4.577 2.709-5.192.647-11.59-4.58-14.233zm-24.509-35.694c-1.274 4.247-3.033 8.018-5.277 11.312-1.139 1.672-3.445 2.054-5.104.896-4.657-3.251-9.446-5.992-14.368-8.225a8.154 8.154 0 0 0-10.684 3.834l-.52 1.057c-1.824 3.714-.252 8.18 3.478 9.974.063.03.13.054.189.091 5.173 3.273 3.259 7.203-1.564 6.962h-.113c-10.102 0-18.457-3.744-25.065-11.232-6.607-7.489-9.911-18.779-9.911-33.875 0-14.859 3.304-25.99 9.911-33.39 6.608-7.401 15.227-11.101 25.858-11.101 10.629 0 19.235 3.687 25.814 11.057 6.577 7.371 9.867 18.516 9.867 33.434 0 7.223-.838 13.626-2.511 19.206z" class="colorFFF svgShape"/><path fill="#9c9de5" d="M545.802 707.447c-7.394 0-13.388 5.994-13.388 13.389 0 2.57.725 4.97 1.981 7.01l-2.977 7.072 8.45-2.08a13.325 13.325 0 0 0 5.935 1.388c7.395 0 13.389-5.994 13.389-13.389-.001-7.395-5.996-13.39-13.39-13.39zM834.61 714.045H583.38a2.732 2.732 0 0 1 0-5.465h251.23a2.732 2.732 0 0 1 2.732 2.733 2.731 2.731 0 0 1-2.732 2.732zM685.044 729.799H583.38a2.732 2.732 0 0 1 0-5.465h101.664a2.732 2.732 0 1 1 0 5.465zM732.701 729.799h-30.179a2.732 2.732 0 0 1 0-5.465h30.179a2.732 2.732 0 1 1 0 5.465zM545.802 770.783c-7.394 0-13.388 5.994-13.388 13.389 0 2.57.725 4.97 1.981 7.009l-2.977 7.073 8.45-2.08a13.339 13.339 0 0 0 5.935 1.388c7.395 0 13.389-5.995 13.389-13.389-.001-7.396-5.996-13.39-13.39-13.39zM834.61 777.38H583.38a2.732 2.732 0 1 1 0-5.464h251.23a2.731 2.731 0 1 1 0 5.464zM685.044 793.134H583.38a2.732 2.732 0 1 1 0-5.464h101.664a2.732 2.732 0 0 1 0 5.464zM732.701 793.134h-30.179a2.732 2.732 0 1 1 0-5.464h30.179a2.732 2.732 0 0 1 0 5.464z" class="colorA39CE5 svgShape"/><path fill="#fe9526" d="M878.803 68.356c-14.828-19.076-42.633-18.613-60.214-8.531-14.696 8.428-16.304 19.086-8.664 27.145 4.679 4.936 14.906 5.626 23.861-3.433 4.856-4.912 17.456-6.006 21.822 1.784 13.01 23.208-26.802 28.071-35.753 58.642-1.43 4.885 1.546 9.964 6.515 11.065 3.933.871 7.992-1.028 9.75-4.652 6.736-13.881 30.832-21.773 43.009-35.816 10.639-12.266 11.373-31.153-.326-46.204zM824.587 160.046c-5.797-1.259-11.518 2.421-12.776 8.218-1.259 5.797 2.421 11.517 8.218 12.776 5.797 1.259 11.518-2.421 12.776-8.218 1.259-5.798-2.421-11.518-8.218-12.776zM893.581 170.161c4.021.873 7.362-1.807 8.675-5.986l24.117-79.914c1.73-7.967-2.933-15.742-10.414-17.367-7.481-1.624-14.948 3.518-16.678 11.485l-11.113 82.749c-.533 4.343 1.396 8.161 5.413 9.033zM892.591 174.527c-5.797-1.259-11.517 2.421-12.776 8.218-1.259 5.797 2.421 11.518 8.218 12.776 5.797 1.259 11.518-2.421 12.776-8.218 1.259-5.798-2.42-11.518-8.218-12.776z" class="colorF47840 svgShape"/><path fill="#ffb76b" d="M875.53 67.645c-14.828-19.076-42.633-18.613-60.214-8.531-14.696 8.428-16.305 19.086-8.664 27.145 4.679 4.936 14.906 5.626 23.861-3.433 4.856-4.912 17.456-6.006 21.822 1.784 13.01 23.208-26.802 28.071-35.753 58.642-1.43 4.885 1.546 9.964 6.515 11.065 3.933.871 7.992-1.028 9.75-4.652 6.735-13.881 30.832-21.773 43.009-35.816 10.638-12.266 11.372-31.153-.326-46.204zM821.313 159.335c-5.797-1.259-11.518 2.421-12.776 8.218-1.259 5.797 2.421 11.518 8.218 12.776 5.797 1.259 11.518-2.421 12.776-8.218 1.259-5.797-2.42-11.517-8.218-12.776zM890.307 169.45c4.021.873 7.362-1.807 8.675-5.986l24.117-79.914c1.73-7.967-2.933-15.742-10.414-17.366-7.481-1.624-14.948 3.518-16.678 11.485l-11.113 82.749c-.532 4.342 1.396 8.16 5.413 9.032zM889.318 173.816c-5.797-1.259-11.518 2.421-12.776 8.218-1.259 5.797 2.421 11.518 8.218 12.776 5.797 1.259 11.517-2.421 12.776-8.218 1.259-5.797-2.421-11.518-8.218-12.776z" class="colorFF9F6B svgShape"/><path fill="#666666" d="M809.968 73.631c2.632-3.082 5.849-5.657 9.277-7.801 3.965-2.48 8.39-4.433 13.068-4.988 1.761-.209 1.625-2.979-.153-2.768-9.176 1.09-18.282 6.712-24.234 13.683-1.158 1.355.882 3.232 2.042 1.874zM898.709 83.899a934.436 934.436 0 0 0-3.26 22.773c-.229 1.756 2.478 2.36 2.709.588a933.736 933.736 0 0 1 3.26-22.773c.272-1.755-2.434-2.355-2.709-.588zM813.843 171.851c-1.606-3.729 1.525-8.322 5.595-8.078 1.452.087 1.319-2.178-.125-2.265-5.458-.327-9.77 6.068-7.626 11.046.572 1.329 2.735.641 2.156-.703zM881.877 186.622c-1.606-3.729 1.525-8.322 5.595-8.078 1.452.087 1.319-2.178-.125-2.265-5.458-.327-9.77 6.068-7.626 11.046.572 1.329 2.735.641 2.156-.703zM838.772 60.038a12.366 12.366 0 0 1 5.71-.114c1.745.368 2.336-2.34.588-2.709-2.407-.508-4.78-.42-7.157.187-1.729.441-.866 3.076.859 2.636zM894.777 111.611l-.633 4.248c-.262 1.755 2.445 2.356 2.709.588l.633-4.248c.261-1.755-2.446-2.356-2.709-.588z" class="color666 svgShape"/><path fill="#fe9526" d="M421.994 638.294c-37.46-31.651-92.481-19.046-123.156 8.361-25.642 22.911-24.357 44.752-5.799 57.545 11.366 7.835 31.964 4.91 45.941-16.843 7.579-11.794 32.14-19.26 44.084-5.627 35.587 40.619-41.428 67.006-46.355 131.474-.787 10.301 7.257 19.137 17.587 19.235 8.175.077 15.437-5.4 17.406-13.335 7.542-30.395 52.076-56.192 70.357-89.196 15.97-28.828 9.491-66.642-20.065-91.614zM352.861 843.152c-12.042-.063-21.854 9.647-21.917 21.688v.001c-.063 12.041 9.647 21.854 21.688 21.917 12.042.063 21.854-9.647 21.917-21.688v-.001c.064-12.041-9.646-21.853-21.688-21.917zM494.119 834.247c8.353.044 13.861-6.682 14.712-15.532l14.31-168.826c.087-16.548-12.439-30.028-27.978-30.11-15.539-.082-28.206 13.266-28.293 29.814l12.703 168.991c.769 8.849 6.202 15.62 14.546 15.663zM493.988 843.332c-12.041-.063-21.854 9.647-21.917 21.688v.001c-.063 12.041 9.647 21.854 21.688 21.917 12.041.063 21.854-9.647 21.917-21.688v-.001c.064-12.041-9.646-21.853-21.688-21.917z" class="colorF47840 svgShape"/><path fill="#ffb76b" d="M415.195 638.259c-37.461-31.651-92.482-19.046-123.156 8.361-25.642 22.911-24.357 44.752-5.799 57.545 11.366 7.835 31.964 4.91 45.941-16.843 7.579-11.794 32.14-19.26 44.084-5.627 35.587 40.619-41.428 67.006-46.355 131.474-.787 10.301 7.257 19.137 17.588 19.235 8.175.078 15.437-5.4 17.406-13.335 7.542-30.395 52.076-56.192 70.357-89.196 15.968-28.829 9.49-66.642-20.066-91.614zM346.062 843.117c-12.042-.063-21.854 9.647-21.917 21.688v.001c-.063 12.041 9.647 21.854 21.688 21.917 12.041.063 21.854-9.647 21.917-21.688v-.001c.063-12.042-9.647-21.854-21.688-21.917zM487.319 834.212c8.353.044 13.861-6.682 14.712-15.532l14.31-168.826c.087-16.548-12.439-30.028-27.978-30.11-15.539-.082-28.206 13.266-28.293 29.814l12.703 168.991c.769 8.848 6.202 15.619 14.546 15.663zM487.189 843.297c-12.041-.063-21.854 9.647-21.917 21.688v.001c-.063 12.041 9.647 21.854 21.688 21.917 12.041.063 21.854-9.647 21.917-21.688v-.001c.063-12.042-9.647-21.854-21.688-21.917z" class="colorFF9F6B svgShape"/><path fill="#666666" d="M287.52 677.694c3.931-7.227 9.237-13.692 15.143-19.39 6.832-6.591 14.799-12.328 23.855-15.397 3.409-1.155 1.975-6.599-1.467-5.433-17.763 6.02-33.483 21.01-42.374 37.354-1.73 3.181 3.11 6.051 4.843 2.866zM468.053 660.796c.843 15.543 1.87 31.075 3.096 46.592.283 3.583 5.912 3.645 5.626.029a1888.458 1888.458 0 0 1-3.096-46.592c-.195-3.599-5.822-3.653-5.626-.029zM336.486 871.111c-4.757-6.73-.468-17.166 7.715-18.392 2.921-.437 1.705-4.88-1.2-4.445-10.975 1.644-16.851 16.156-10.502 25.139 1.696 2.399 5.702.123 3.987-2.302zM477.793 871.853c-4.757-6.73-.468-17.166 7.715-18.392 2.921-.437 1.705-4.88-1.2-4.445-10.975 1.644-16.851 16.156-10.502 25.139 1.696 2.399 5.702.124 3.987-2.302zM339.006 638.598c3.575-1.763 7.301-2.623 11.29-2.625 3.619-.002 3.656-5.628.03-5.626-4.993.003-9.668 1.175-14.134 3.379-3.248 1.601-.427 6.47 2.814 4.872zM471.891 717.477l.528 8.701c.218 3.595 5.846 3.651 5.626.03l-.528-8.701c-.219-3.595-5.846-3.651-5.626-.03z" class="color666 svgShape"/></svg>