<svg xmlns="http://www.w3.org/2000/svg" data-name="Layer 1" viewBox="0 0 64 64"><path fill="#595bd4" d="M2.16 57.06h59.68v6.08H2.16z" class="color36c svgShape"></path><path fill="#fe9526" d="M56.25 27.13v24.06h1.34v1.82h1.4v1.46H47.1v-1.46h1.4v-1.82h1.35V27.13H48.5v-1.82h-1.4V23.6h11.89v1.71h-1.4v1.82h-1.34zM14.15 27.13v24.06h1.35v1.82h1.39v1.46H5.01v-1.46h1.4v-1.82h1.34V27.13H6.41v-1.82h-1.4V23.6h11.88v1.71H15.5v1.82h-1.35zM35.2 27.13v24.06h1.35v1.82h1.39v1.46H26.06v-1.46h1.39v-1.82h1.35V27.13h-1.35v-1.82h-1.39V23.6h11.88v1.71h-1.39v1.82H35.2z" class="color3b4551 svgShape"></path><path fill="#595bd4" d="M57.85 5h-9.32A34.22 34.22 0 0 0 32 .85 34.22 34.22 0 0 0 15.47 5H6.15A4.12 4.12 0 0 0 2 9.14V21h60V9.14A4.12 4.12 0 0 0 57.85 5Zm-36.5 13.65h-2.68l-4.32-8.31v8.31H12V7.38h3l4 8v-8h2.34Zm15-.52a12.62 12.62 0 0 1-3.76.64A6.28 6.28 0 0 1 28 17.25a5.45 5.45 0 0 1-1.59-4.1c0-3.75 2.74-5.89 6.44-5.89a7.77 7.77 0 0 1 3.15.55l-.54 2a6.23 6.23 0 0 0-2.63-.49A3.41 3.41 0 0 0 29.06 13a3.39 3.39 0 0 0 3.55 3.7 3.42 3.42 0 0 0 1.26-.17v-2.34h-1.74v-2h4.2Zm10.13.7c-3.34 0-5.3-2.53-5.3-5.74 0-3.38 2.16-5.9 5.49-5.9S52 9.79 52 12.9c0 3.69-2.26 5.94-5.55 5.94Z" class="color36c svgShape"></path><path fill="#595bd4" d="M46.57 9.22c-1.72 0-2.73 1.64-2.73 3.83s1 3.76 2.74 3.76 2.71-1.64 2.71-3.83c0-1.98-.97-3.76-2.72-3.76Z" class="color36c svgShape"></path></svg>